<svg xmlns="http://www.w3.org/2000/svg" width="24" height="24" viewBox="0 0 24 24">
  <defs>
    <style>
      g {
        fill: #BCBCBC;
      }

      g:not(:target) {
        display: none;
      }
    </style>
  </defs>

  <g id="phone"><path d="M17.167 24H6.831A1.863 1.81 0 015 22.166V1.832A1.862 1.809 0 016.831 0h10.336A1.862 1.809 0 0119 1.832v20.334A1.863 1.81 0 0117.167 24zm-6.421-2.554a.43.418 0 00-.433.46.431.419 0 00.433.46h2.507a.454.441 0 00.432-.46.454.441 0 00-.432-.46zM6.225 2.962v16.85h11.649V2.961z"/></g>
  <g id="email"><path d="M21.328 24H2.662a2.73 2.731 0 01-2.665-2.788V10.081A3.408 3.409 0 01.17 9.018a3.28 3.281 0 01.874-1.376l.818-.765L3.45 5.542v2.5l-.421.354a3.17 3.17 0 00-.283.271l.3.251 9.021 7.488 8.898-7.488.283-.237a3.264 3.265 0 00-.3-.283l-.405-.336V5.575l1.523 1.261.03.025.013.012c.029.025.058.05.085.076l.747.692a3.256 3.257 0 01.88 1.374 3.48 3.481 0 01.175 1.074v11.122A2.73 2.731 0 0121.328 24zM8.895 16.265l-5.527 5.788h17.278l-5.488-5.747-2.505 2.109a.9.9 0 01-.582.216.91.91 0 01-.58-.212zm-6.998-5.811a3.53 3.53 0 00-.037.492v9.926l5.567-5.827zm20.195.014l-5.473 4.609 5.51 5.768V10.96a3.292 3.293 0 00-.037-.492zm-10.154 1.448a4.047 4.048 0 01-2.899-1.07 3.807 3.808 0 01-1.118-2.877 4.339 4.34 0 011.194-3.1 4.076 4.077 0 013.074-1.254 4.055 4.056 0 012.815.973 3.308 3.309 0 011.075 2.569 3.2 3.2 0 01-.656 2.1 2.047 2.048 0 01-1.63.791 1.115 1.115 0 01-.778-.267.969.969 0 01-.325-.7h-.028a1.252 1.252 0 01-1.227.968 1.322 1.322 0 01-1.076-.506 2.183 2.184 0 01-.41-1.4 2.988 2.989 0 01.567-1.886 1.688 1.688 0 011.362-.725.84.84 0 01.9.593h.02l.05-.5h1.087c-.144 1.428-.218 2.375-.218 2.817 0 .471.123.709.366.709s.47-.18.639-.536a3.344 3.345 0 00.25-1.4 2.714 2.715 0 00-.72-1.941 2.654 2.655 0 00-2.01-.757 2.981 2.982 0 00-2.3 1.01 3.544 3.545 0 00-.917 2.461 3.005 3.006 0 00.81 2.215 3.035 3.036 0 002.236.811 4.546 4.547 0 001.99-.435v.966a5.269 5.27 0 01-2.124.37zm.1-5.5a.812.812 0 00-.707.519 2.548 2.549 0 00-.272 1.2 1.33 1.331 0 00.186.757.564.564 0 00.48.271.8.8 0 00.715-.511 3.024 3.025 0 00.262-1.366 1.016 1.016 0 00-.18-.637.586.586 0 00-.48-.233zm5.899 3.758V1.718H6.04v8.411L4.398 8.767V.858A.84.841 0 015.22 0h13.538a.84.841 0 01.82.858v7.934l-1.64 1.381z"/></g>
  <g id="user"><path d="M24 24H0v-.8A11.908 11.908 0 012.392 16a12.068 12.069 0 016.073-4.273A6.4 6.4 0 015.6 6.4 6.407 6.407 0 0112 0a6.408 6.408 0 016.4 6.4 6.4 6.4 0 01-2.865 5.327A12.07 12.07 0 0121.608 16 11.908 11.908 0 0124 23.2zM11.921 12.8a10.392 10.392 0 00-10.322 9.6h20.72a10.443 10.443 0 00-10.397-9.6zm.078-11.2a4.8 4.8 0 00-4.8 4.8 4.8 4.8 0 004.8 4.8 4.806 4.806 0 004.8-4.8A4.806 4.806 0 0012 1.6z"/></g>
  <g id="search"><path d="M22.388 24a1.6 1.6 0 01-1.141-.473l-7.468-7.464h-.01a8.803 8.799 0 112.301-2.3.018.018 0 00-.01 0l7.467 7.464a1.614 1.614 0 01-1.14 2.755zM8.807 1.541a7.271 7.268 0 000 14.535h.01a7.271 7.268 0 000-14.535z" /></g>
</svg>
